<svg width="702" height="360" viewBox="0 0 702 360" fill="none" xmlns="http://www.w3.org/2000/svg">
<path d="M48.648 329V239.4H68.36V329H48.648ZM121.088 330.536C100.48 330.536 85.376 314.664 85.376 295.08V294.824C85.376 275.24 100.352 259.112 121.344 259.112C134.272 259.112 142.336 263.464 148.736 270.632L136.832 283.432C132.48 278.824 128.128 275.88 121.216 275.88C111.488 275.88 104.576 284.456 104.576 294.568V294.824C104.576 305.32 111.36 313.768 121.984 313.768C128.512 313.768 132.992 310.952 137.728 306.472L149.12 317.992C142.464 325.288 134.784 330.536 121.088 330.536ZM193.618 330.536C172.37 330.536 156.626 314.792 156.626 295.08V294.824C156.626 275.112 172.498 259.112 193.874 259.112C215.122 259.112 230.866 274.856 230.866 294.568V294.824C230.866 314.536 214.994 330.536 193.618 330.536ZM193.874 313.768C205.01 313.768 211.666 305.192 211.666 295.08V294.824C211.666 284.712 204.37 275.88 193.618 275.88C182.482 275.88 175.826 284.456 175.826 294.568V294.824C175.826 304.936 183.122 313.768 193.874 313.768ZM244.954 329V260.392H264.41V270.12C268.89 264.36 274.65 259.112 284.506 259.112C299.226 259.112 307.802 268.84 307.802 284.584V329H288.346V290.728C288.346 281.512 283.994 276.776 276.57 276.776C269.146 276.776 264.41 281.512 264.41 290.728V329H244.954ZM365.127 329V239.4H401.735C423.111 239.4 436.039 252.072 436.039 270.376V270.632C436.039 291.368 419.911 302.12 399.815 302.12H384.839V329H365.127ZM384.839 284.584H400.455C410.311 284.584 416.071 278.696 416.071 271.016V270.76C416.071 261.928 409.927 257.192 400.071 257.192H384.839V284.584ZM466.785 330.28C453.857 330.28 443.233 322.856 443.233 309.288V309.032C443.233 294.056 454.625 287.144 470.881 287.144C477.793 287.144 482.785 288.296 487.649 289.96V288.808C487.649 280.744 482.657 276.264 472.929 276.264C465.505 276.264 460.257 277.672 453.985 279.976L449.121 265.128C456.673 261.8 464.097 259.624 475.745 259.624C486.369 259.624 494.049 262.44 498.913 267.304C504.033 272.424 506.337 279.976 506.337 289.192V329H487.521V321.576C482.785 326.824 476.257 330.28 466.785 330.28ZM472.673 316.84C481.761 316.84 487.905 311.848 487.905 304.808V301.352C484.577 299.816 480.225 298.792 475.489 298.792C467.169 298.792 462.049 302.12 462.049 308.264V308.52C462.049 313.768 466.401 316.84 472.673 316.84ZM555.463 330.536C534.855 330.536 519.751 314.664 519.751 295.08V294.824C519.751 275.24 534.727 259.112 555.719 259.112C568.647 259.112 576.711 263.464 583.111 270.632L571.207 283.432C566.855 278.824 562.503 275.88 555.591 275.88C545.863 275.88 538.951 284.456 538.951 294.568V294.824C538.951 305.32 545.735 313.768 556.359 313.768C562.887 313.768 567.367 310.952 572.103 306.472L583.495 317.992C576.839 325.288 569.159 330.536 555.463 330.536ZM596.204 329V235.56H615.66V285.352L638.444 260.392H661.74L635.628 287.4L662.636 329H640.108L622.572 300.84L615.66 308.136V329H596.204Z" fill="white"/>
<path d="M370.264 238.203C348.323 238.203 328.407 233.196 310.513 223.183C292.62 212.956 278.561 199.001 268.336 181.318C258.111 163.422 252.999 143.502 252.999 121.557C252.999 99.613 258.111 79.7993 268.336 62.116C278.561 44.2197 292.62 30.2649 310.513 20.2515C328.407 10.025 348.323 4.91178 370.264 4.91178C392.418 4.91178 412.441 10.025 430.335 20.2515C448.228 30.2649 462.287 44.2197 472.512 62.116C482.736 79.7993 487.849 99.613 487.849 121.557C487.849 143.502 482.736 163.422 472.512 181.318C462.287 199.001 448.228 212.956 430.335 223.183C412.441 233.196 392.418 238.203 370.264 238.203ZM370.264 187.71C382.406 187.71 393.27 184.833 402.856 179.081C412.654 173.329 420.323 165.446 425.861 155.432C431.4 145.206 434.169 133.914 434.169 121.557C434.169 109.2 431.4 98.0151 425.861 88.0017C420.323 77.7753 412.654 69.7858 402.856 64.0335C393.27 58.2811 382.406 55.4049 370.264 55.4049C358.335 55.4049 347.471 58.2811 337.673 64.0335C328.087 69.7858 320.525 77.7753 314.987 88.0017C309.661 98.0151 306.998 109.2 306.998 121.557C306.998 133.914 309.661 145.206 314.987 155.432C320.525 165.446 328.087 173.329 337.673 179.081C347.471 184.833 358.335 187.71 370.264 187.71Z" fill="white"/>
<path d="M602.895 238.203C583.723 238.203 566.363 235.22 550.812 229.255C535.475 223.076 523.014 213.808 513.428 201.451C504.055 189.094 498.517 173.861 496.813 155.752H549.534C551.025 163.848 554.114 170.772 558.8 176.524C563.487 182.277 569.558 186.751 577.013 189.947C584.682 192.929 593.309 194.421 602.895 194.421C616.102 194.421 626.54 192.61 634.208 188.988C641.877 185.153 645.711 179.507 645.711 172.05C645.711 166.298 643.9 161.824 640.279 158.628C636.658 155.432 631.545 152.876 624.942 150.958C618.551 149.041 608.22 146.591 593.948 143.608H593.629C575.096 139.56 559.546 135.299 546.978 130.825C534.623 126.138 524.079 119.107 515.345 109.733C506.825 100.359 502.564 88.0017 502.564 72.662C502.564 57.3223 507.038 44.6458 515.984 34.6324C524.931 24.406 536.54 16.9492 550.812 12.262C565.298 7.36186 580.954 4.91178 597.782 4.91178C615.25 4.91178 631.439 7.78797 646.35 13.5404C661.474 19.0797 673.935 27.8148 683.734 39.7456C693.533 51.6765 699.391 66.8031 701.308 85.1255H646.35C644.22 73.4077 638.681 64.5661 629.735 58.6007C620.788 52.4222 609.605 49.3329 596.185 49.3329C589.368 49.3329 582.978 50.0786 577.013 51.57C571.262 53.0613 566.469 55.5114 562.635 58.9202C558.801 62.3291 556.883 66.6966 556.883 72.0229C556.883 77.3492 558.801 81.7167 562.635 85.1255C566.469 88.3213 571.581 90.8779 577.972 92.7954C584.362 94.4998 593.522 96.6303 605.451 99.1869C606.09 99.4 606.836 99.613 607.688 99.8261C608.753 99.8261 609.605 99.9326 610.244 100.146C610.67 100.359 611.096 100.572 611.522 100.785C612.161 100.785 612.694 100.785 613.12 100.785C631.439 104.833 646.776 109.413 659.131 114.527C671.486 119.427 681.498 126.457 689.166 135.619C697.048 144.78 700.989 156.604 700.989 171.092C700.989 184.727 697.154 196.658 689.486 206.884C681.817 216.898 670.634 224.674 655.936 230.213C641.238 235.54 623.557 238.203 602.895 238.203Z" fill="white"/>
<path d="M39.7367 172.319V193.797C39.7367 204.772 30.8413 213.669 19.8683 213.669C8.89536 213.669 0 204.772 0 193.797V26.9217C0 12.0532 12.0512 0 26.9172 0C35.0271 0 42.7048 3.65711 47.8159 9.95476L97.8703 71.6289C122.157 101.553 170.562 84.3773 170.562 45.835V24.4735C170.562 13.6675 179.32 4.90759 190.125 4.90759C200.929 4.90759 209.687 13.6675 209.687 24.4735V195.204C209.687 208.738 198.718 219.709 185.186 219.709C177.862 219.709 170.922 216.432 166.268 210.776L113.002 146.043C88.3502 116.083 39.7367 133.518 39.7367 172.319Z" fill="white"/>
<path d="M378.88 150.96C370.432 150.96 364.384 147.6 361.12 143.28V165.36H346.528V104.688C346.528 88.848 356.128 79.248 372.64 79.248C388.672 79.248 396.64 87.6 396.64 98.544C396.64 106.896 392.512 112.752 384.448 115.248C393.76 117.648 399.232 122.16 399.232 131.856C399.232 143.088 391.648 150.96 378.88 150.96ZM374.848 138.768C381.472 138.768 384.832 135.024 384.832 130.416C384.832 123.888 379.84 120.72 368.512 120.72H360.928V122.256C360.928 134.064 366.496 138.768 374.848 138.768ZM360.928 104.592V110.448H368.416C377.344 110.448 382.432 106.512 382.432 100.08C382.432 95.088 378.88 91.248 372.736 91.248C365.344 91.248 360.928 96.528 360.928 104.592Z" fill="white"/>
<path d="M378.88 150.96C370.432 150.96 364.384 147.6 361.12 143.28V165.36H346.528V104.688C346.528 88.848 356.128 79.248 372.64 79.248C388.672 79.248 396.64 87.6 396.64 98.544C396.64 106.896 392.512 112.752 384.448 115.248C393.76 117.648 399.232 122.16 399.232 131.856C399.232 143.088 391.648 150.96 378.88 150.96ZM374.848 138.768C381.472 138.768 384.832 135.024 384.832 130.416C384.832 123.888 379.84 120.72 368.512 120.72H360.928V122.256C360.928 134.064 366.496 138.768 374.848 138.768ZM360.928 104.592V110.448H368.416C377.344 110.448 382.432 106.512 382.432 100.08C382.432 95.088 378.88 91.248 372.736 91.248C365.344 91.248 360.928 96.528 360.928 104.592Z" fill="white"/>
</svg>
