<svg width="1422" height="152" viewBox="0 0 1422 152" fill="none" xmlns="http://www.w3.org/2000/svg">
<path d="M746 114.124V4.69002H770.116V114.124H746Z" fill="white"/>
<path d="M825.229 116C800.017 116 781.538 96.4582 781.538 72.6954V72.3827C781.538 48.4636 799.86 28.7655 825.542 28.7655C841.358 28.7655 851.068 34.0809 859.054 42.8356L844.49 58.469C839.01 52.841 833.998 49.2453 825.385 49.2453C813.484 49.2453 805.028 59.5633 805.028 72.0701V72.3827C805.028 85.3585 813.327 95.5202 826.325 95.5202C834.312 95.5202 839.793 92.0809 845.587 86.6092L859.524 100.679C851.381 109.59 841.985 116 825.229 116Z" fill="white"/>
<path d="M904.568 116C878.729 116 859.311 96.9272 859.311 72.6954V72.3827C859.311 48.3073 878.729 28.7655 904.881 28.7655C930.72 28.7655 950.138 47.8383 950.138 72.0701V72.3827C950.138 96.4582 930.72 116 904.568 116ZM904.881 95.5202C918.505 95.5202 926.648 85.2022 926.648 72.6954V72.3827C926.648 60.0323 917.722 49.2453 904.568 49.2453C890.944 49.2453 882.801 59.5633 882.801 72.0701V72.3827C882.801 84.7332 891.727 95.5202 904.881 95.5202Z" fill="white"/>
<path d="M957.978 114.124V30.3288H981.781V42.2102C987.262 35.1752 994.465 28.7655 1006.37 28.7655C1024.53 28.7655 1034.87 40.4906 1034.87 59.876V114.124H1011.06V67.3801C1011.06 56.124 1005.9 50.3396 996.657 50.3396C987.418 50.3396 981.781 56.124 981.781 67.3801V114.124H957.978Z" fill="white"/>
<path d="M1086.21 114.124V4.69002H1131C1157.15 4.69002 1172.96 20.0108 1172.96 42.5229V42.8356C1172.96 68.3181 1153.23 81.2938 1128.65 81.2938H1110.32V114.124H1086.21ZM1110.32 59.876H1129.43C1141.49 59.876 1148.53 52.6846 1148.53 43.3046V42.9919C1148.53 32.2048 1141.02 26.4205 1128.96 26.4205H1110.32V59.876Z" fill="white"/>
<path d="M1201.18 115.687C1185.37 115.687 1172.37 106.776 1172.37 90.0485V89.7358C1172.37 71.6011 1186.31 63.0027 1206.19 63.0027C1214.81 63.0027 1220.6 64.4097 1226.71 66.442V65.035C1226.71 55.0296 1220.6 49.7143 1208.7 49.7143C1199.46 49.7143 1193.2 51.2776 1185.52 54.248L1179.57 36.1132C1188.81 32.2048 1197.89 29.3908 1212.15 29.3908C1225.3 29.3908 1234.38 32.6739 1240.49 38.7709C1246.75 45.0243 1249.57 54.248 1249.57 65.504V114.124H1226.55V105.057C1220.76 111.466 1212.93 115.687 1201.18 115.687ZM1208.39 99.2722C1219.66 99.2722 1227.02 93.3315 1227.02 84.5768V80.3558C1222.79 78.4798 1217.63 77.2291 1211.83 77.2291C1201.65 77.2291 1195.39 81.2938 1195.39 88.7978V89.1105C1195.39 95.5202 1200.71 99.2722 1208.39 99.2722Z" fill="white"/>
<path d="M1300.28 116C1275.07 116 1256.59 96.4582 1256.59 72.6954V72.3827C1256.59 48.4636 1274.91 28.7655 1300.59 28.7655C1316.41 28.7655 1326.12 34.0809 1334.1 42.8356L1319.54 58.469C1314.06 52.841 1309.05 49.2453 1300.43 49.2453C1288.53 49.2453 1280.08 59.5633 1280.08 72.0701V72.3827C1280.08 85.3585 1288.38 95.5202 1301.37 95.5202C1309.36 95.5202 1314.84 92.0809 1320.64 86.6092L1334.57 100.679C1326.43 109.59 1317.03 116 1300.28 116Z" fill="white"/>
<path d="M1340.73 114.124V0H1364.53V60.814L1392.4 30.3288H1420.9L1388.96 63.3154L1422 114.124H1394.44L1372.98 79.7305L1364.53 88.6415V114.124H1340.73Z" fill="white"/>
<path d="M133.349 119.831V39.4074H156.295V119.831H133.349ZM144.1 30.4L129.337 0H160.468L145.705 30.4H144.1Z" fill="white"/>
<path d="M174.218 152V39.4074H195.239V48.254C198.448 44.9298 202.139 42.3563 206.311 40.5333C210.59 38.7104 215.244 37.7989 220.272 37.7989C227.867 37.7989 234.714 39.6219 240.812 43.2677C246.91 46.9136 251.67 51.9534 255.093 58.3873C258.517 64.7139 260.228 71.7912 260.228 79.6191C260.228 87.4469 258.517 94.5778 255.093 101.012C251.67 107.338 246.856 112.325 240.651 115.97C234.554 119.616 227.76 121.439 220.272 121.439C215.779 121.439 211.553 120.689 207.595 119.187C203.744 117.579 200.267 115.381 197.165 112.593V152H174.218ZM216.581 100.207C220.325 100.207 223.749 99.3496 226.851 97.6339C229.953 95.8109 232.36 93.3446 234.072 90.2349C235.891 87.018 236.8 83.4794 236.8 79.6191C236.8 75.7587 235.891 72.2737 234.072 69.164C232.36 65.9471 229.953 63.4808 226.851 61.7651C223.749 59.9422 220.325 59.0307 216.581 59.0307C212.944 59.0307 209.574 59.9422 206.472 61.7651C203.369 63.4808 200.962 65.9471 199.251 69.164C197.539 72.2737 196.683 75.7587 196.683 79.6191C196.683 83.4794 197.539 87.018 199.251 90.2349C200.962 93.3446 203.369 95.8109 206.472 97.6339C209.574 99.3496 212.944 100.207 216.581 100.207Z" fill="white"/>
<path d="M309.353 121.439C301.008 121.439 293.466 119.616 286.727 115.97C280.094 112.325 274.852 107.338 271.001 101.012C267.15 94.5778 265.224 87.4469 265.224 79.6191C265.224 71.7912 267.15 64.7139 271.001 58.3873C274.852 51.9534 280.094 46.9136 286.727 43.2677C293.466 39.6219 301.008 37.7989 309.353 37.7989C317.59 37.7989 325.079 39.6219 331.818 43.2677C338.558 46.9136 343.8 51.9534 347.544 58.3873C351.395 64.7139 353.321 71.7912 353.321 79.6191C353.321 87.4469 351.395 94.5778 347.544 101.012C343.8 107.338 338.558 112.325 331.818 115.97C325.079 119.616 317.59 121.439 309.353 121.439ZM309.353 100.207C313.204 100.207 316.681 99.3496 319.783 97.6339C322.993 95.8109 325.453 93.3446 327.165 90.2349C328.983 87.1252 329.893 83.5866 329.893 79.6191C329.893 75.6515 328.983 72.1129 327.165 69.0032C325.453 65.8935 322.993 63.4808 319.783 61.7651C316.681 59.9422 313.204 59.0307 309.353 59.0307C305.395 59.0307 301.811 59.9422 298.601 61.7651C295.499 63.4808 293.092 65.8935 291.38 69.0032C289.669 72.1129 288.813 75.6515 288.813 79.6191C288.813 83.5866 289.669 87.1252 291.38 90.2349C293.199 93.3446 295.66 95.8109 298.762 97.6339C301.864 99.3496 305.395 100.207 309.353 100.207Z" fill="white"/>
<path d="M364.24 119.831V39.4074H385.261V48.254C388.364 44.9298 392.108 42.3563 396.494 40.5333C400.88 38.7104 405.641 37.7989 410.776 37.7989C417.622 37.7989 423.72 39.3002 429.069 42.3027C434.418 45.3051 438.537 49.5944 441.425 55.1704C444.314 60.6392 445.758 66.9658 445.758 74.1503V119.831H422.49V77.8497C422.49 72.0593 420.992 67.5019 417.997 64.1778C415.001 60.8536 410.99 59.1915 405.962 59.1915C402.432 59.1915 399.222 59.9958 396.334 61.6042C393.445 63.2127 391.199 65.4646 389.594 68.3598C387.989 71.1478 387.187 74.3111 387.187 77.8497V119.831H364.24Z" fill="white"/>
<path d="M515.747 122.243C504.728 122.243 494.725 119.723 485.739 114.684C476.753 109.537 469.693 102.513 464.558 93.6127C459.423 84.6053 456.855 74.5792 456.855 63.5344C456.855 52.4896 459.423 42.5171 464.558 33.6169C469.693 24.6095 476.753 17.5859 485.739 12.546C494.725 7.39895 504.728 4.8254 515.747 4.8254C526.872 4.8254 536.928 7.39895 545.915 12.546C554.901 17.5859 561.961 24.6095 567.096 33.6169C572.231 42.5171 574.799 52.4896 574.799 63.5344C574.799 74.5792 572.231 84.6053 567.096 93.6127C561.961 102.513 554.901 109.537 545.915 114.684C536.928 119.723 526.872 122.243 515.747 122.243ZM515.747 96.8296C521.845 96.8296 527.3 95.382 532.114 92.4868C537.035 89.5915 540.887 85.624 543.668 80.5841C546.45 75.437 547.84 69.7538 547.84 63.5344C547.84 57.315 546.45 51.6854 543.668 46.6455C540.887 41.4984 537.035 37.4773 532.114 34.582C527.3 31.6868 521.845 30.2392 515.747 30.2392C509.756 30.2392 504.3 31.6868 499.379 34.582C494.565 37.4773 490.767 41.4984 487.986 46.6455C485.311 51.6854 483.974 57.315 483.974 63.5344C483.974 69.7538 485.311 75.437 487.986 80.5841C490.767 85.624 494.565 89.5915 499.379 92.4868C504.3 95.382 509.756 96.8296 515.747 96.8296Z" fill="white"/>
<path d="M632.576 122.243C622.948 122.243 614.229 120.742 606.42 117.74C598.717 114.63 592.459 109.965 587.645 103.746C582.938 97.5266 580.157 89.8596 579.301 80.745H605.778C606.527 84.8198 608.078 88.3048 610.431 91.2C612.785 94.0952 615.834 96.3471 619.578 97.9556C623.429 99.4568 627.762 100.207 632.576 100.207C639.209 100.207 644.451 99.296 648.302 97.473C652.153 95.5429 654.079 92.7012 654.079 88.9482C654.079 86.0529 653.169 83.8011 651.351 82.1926C649.532 80.5841 646.965 79.2974 643.648 78.3323C640.439 77.3672 635.25 76.134 628.083 74.6328H627.922C618.615 72.5954 610.806 70.4508 604.494 68.1989C598.289 65.8399 592.994 62.3012 588.608 57.5831C584.329 52.8649 582.189 46.6455 582.189 38.9249C582.189 31.2042 584.436 24.824 588.929 19.7841C593.422 14.637 599.252 10.884 606.42 8.52487C613.694 6.05856 621.557 4.8254 630.008 4.8254C638.781 4.8254 646.911 6.27302 654.4 9.16826C661.995 11.9563 668.253 16.3527 673.174 22.3577C678.095 28.3626 681.037 35.976 682 45.1979H654.4C653.33 39.3002 650.548 34.8501 646.055 31.8476C641.562 28.7379 635.946 27.1831 629.206 27.1831C625.783 27.1831 622.573 27.5584 619.578 28.309C616.69 29.0596 614.283 30.2928 612.357 32.0085C610.431 33.7242 609.469 35.9224 609.469 38.6032C609.469 41.284 610.431 43.4822 612.357 45.1979C614.283 46.8064 616.85 48.0931 620.059 49.0582C623.269 49.9161 627.869 50.9884 633.86 52.2751C634.181 52.3824 634.555 52.4896 634.983 52.5968C635.518 52.5968 635.946 52.6504 636.267 52.7577C636.481 52.8649 636.695 52.9721 636.909 53.0794C637.23 53.0794 637.497 53.0794 637.711 53.0794C646.911 55.1168 654.614 57.4222 660.818 59.9958C667.023 62.4621 672.051 66.0007 675.902 70.6116C679.86 75.2226 681.84 81.1739 681.84 88.4656C681.84 95.3284 679.914 101.333 676.063 106.48C672.211 111.52 666.595 115.434 659.214 118.222C651.832 120.903 642.953 122.243 632.576 122.243Z" fill="white"/>
<path d="M19.9561 95.9787V106.789C19.9561 112.313 15.4888 116.791 9.97806 116.791C4.46733 116.791 0 112.313 0 106.789V22.7987C0 15.3152 6.05225 9.24869 13.5181 9.24869C17.5909 9.24869 21.4467 11.0894 24.0136 14.259L49.1513 45.3003C61.3482 60.3616 85.6578 51.7167 85.6578 32.318V21.5665C85.6578 16.1277 90.0564 11.7187 95.4823 11.7187C100.908 11.7187 105.307 16.1277 105.307 21.5665V107.497C105.307 114.309 99.7979 119.831 93.0022 119.831C89.324 119.831 85.8387 118.181 83.5013 115.335L56.7508 82.7536C44.3703 67.6746 19.9561 76.4497 19.9561 95.9787Z" fill="white"/>
</svg>
