<svg width="4622" height="494" viewBox="0 0 4622 494" fill="none" xmlns="http://www.w3.org/2000/svg">
<path d="M2424.5 370.903V15.2426H2502.88V370.903H2424.5Z" fill="white"/>
<path d="M2681.99 377C2600.05 377 2540 313.489 2540 236.26V235.244C2540 157.507 2599.54 93.4879 2683.01 93.4879C2734.42 93.4879 2765.97 110.763 2791.93 139.216L2744.59 190.024C2726.78 171.733 2710.49 160.047 2682.5 160.047C2643.82 160.047 2616.34 193.581 2616.34 234.228V235.244C2616.34 277.415 2643.31 310.441 2685.56 310.441C2711.51 310.441 2729.33 299.263 2748.16 281.48L2793.45 327.208C2766.99 356.168 2736.45 377 2681.99 377Z" fill="white"/>
<path d="M2939.85 377C2855.87 377 2792.76 315.013 2792.76 236.26V235.244C2792.76 156.999 2855.87 93.4879 2940.86 93.4879C3024.84 93.4879 3087.95 155.474 3087.95 234.228V235.244C3087.95 313.489 3024.84 377 2939.85 377ZM2940.86 310.441C2985.14 310.441 3011.61 276.907 3011.61 236.26V235.244C3011.61 195.105 2982.6 160.047 2939.85 160.047C2895.57 160.047 2869.1 193.581 2869.1 234.228V235.244C2869.1 275.383 2898.11 310.441 2940.86 310.441Z" fill="white"/>
<path d="M3113.43 370.903V98.5687H3190.79V137.183C3208.6 114.319 3232.01 93.4879 3270.69 93.4879C3329.73 93.4879 3363.32 131.594 3363.32 194.597V370.903H3285.96V218.985C3285.96 182.403 3269.16 163.604 3239.14 163.604C3209.11 163.604 3190.79 182.403 3190.79 218.985V370.903H3113.43Z" fill="white"/>
<path d="M3530.18 370.903V15.2426H3675.73C3760.73 15.2426 3812.13 65.035 3812.13 138.199V139.216C3812.13 222.034 3748 264.205 3668.1 264.205H3608.55V370.903H3530.18ZM3608.55 194.597H3670.65C3709.83 194.597 3732.74 171.225 3732.74 140.74V139.724C3732.74 104.666 3708.31 85.8666 3669.12 85.8666H3608.55V194.597Z" fill="white"/>
<path d="M3903.85 375.984C3852.44 375.984 3810.2 347.023 3810.2 292.658V291.641C3810.2 232.703 3855.5 204.759 3920.13 204.759C3948.12 204.759 3966.95 209.332 3986.8 215.937V211.364C3986.8 178.846 3966.95 161.571 3928.27 161.571C3898.25 161.571 3877.89 166.652 3852.95 176.306L3833.61 117.368C3863.64 104.666 3893.16 95.5202 3939.47 95.5202C3982.22 95.5202 4011.74 106.19 4031.59 126.005C4051.95 146.329 4061.11 176.306 4061.11 212.888V370.903H3986.29V341.434C3967.46 362.265 3942.02 375.984 3903.85 375.984ZM3927.26 322.635C3963.9 322.635 3987.82 303.327 3987.82 274.875V261.156C3974.08 255.059 3957.28 250.995 3938.45 250.995C3905.37 250.995 3885.01 264.205 3885.01 288.593V289.609C3885.01 310.441 3902.32 322.635 3927.26 322.635Z" fill="white"/>
<path d="M4225.9 377C4143.96 377 4083.91 313.489 4083.91 236.26V235.244C4083.91 157.507 4143.45 93.4879 4226.92 93.4879C4278.32 93.4879 4309.88 110.763 4335.84 139.216L4288.5 190.024C4270.69 171.733 4254.4 160.047 4226.41 160.047C4187.73 160.047 4160.25 193.581 4160.25 234.228V235.244C4160.25 277.415 4187.22 310.441 4229.47 310.441C4255.42 310.441 4273.24 299.263 4292.07 281.48L4337.36 327.208C4310.9 356.168 4280.36 377 4225.9 377Z" fill="white"/>
<path d="M4357.36 370.903V0H4434.72V197.646L4525.31 98.5687H4617.94L4514.11 205.775L4621.5 370.903H4531.93L4462.2 259.124L4434.72 288.085V370.903H4357.36Z" fill="white"/>
<path d="M433.383 389.45V128.074H507.96V389.45H433.383ZM468.325 98.8L420.345 0H521.52L473.54 98.8H468.325Z" fill="white"/>
<path d="M566.208 494V128.074H634.527V156.825C644.957 146.022 656.952 137.658 670.512 131.733C684.419 125.809 699.543 122.847 715.884 122.847C740.569 122.847 762.821 128.771 782.638 140.62C802.456 152.469 817.928 168.849 829.054 189.759C840.179 210.32 845.742 233.321 845.742 258.762C845.742 284.202 840.179 307.378 829.054 328.288C817.928 348.849 802.282 365.055 782.117 376.904C762.299 388.753 740.221 394.677 715.884 394.677C701.281 394.677 687.548 392.238 674.684 387.359C662.167 382.131 650.868 374.987 640.785 365.926V494H566.208ZM703.889 325.674C716.058 325.674 727.183 322.886 737.266 317.31C747.349 311.386 755.172 303.37 760.734 293.263C766.645 282.808 769.6 271.308 769.6 258.762C769.6 246.216 766.645 234.89 760.734 224.783C755.172 214.328 747.349 206.313 737.266 200.737C727.183 194.812 716.058 191.85 703.889 191.85C692.068 191.85 681.116 194.812 671.033 200.737C660.95 206.313 653.128 214.328 647.565 224.783C642.002 234.89 639.22 246.216 639.22 258.762C639.22 271.308 642.002 282.808 647.565 293.263C653.128 303.37 660.95 311.386 671.033 317.31C681.116 322.886 692.068 325.674 703.889 325.674Z" fill="white"/>
<path d="M1005.4 394.677C978.278 394.677 953.766 388.753 931.862 376.904C910.306 365.055 893.27 348.849 880.753 328.288C868.237 307.378 861.979 284.202 861.979 258.762C861.979 233.321 868.237 210.32 880.753 189.759C893.27 168.849 910.306 152.469 931.862 140.62C953.766 128.771 978.278 122.847 1005.4 122.847C1032.17 122.847 1056.51 128.771 1078.41 140.62C1100.31 152.469 1117.35 168.849 1129.52 189.759C1142.03 210.32 1148.29 233.321 1148.29 258.762C1148.29 284.202 1142.03 307.378 1129.52 328.288C1117.35 348.849 1100.31 365.055 1078.41 376.904C1056.51 388.753 1032.17 394.677 1005.4 394.677ZM1005.4 325.674C1017.91 325.674 1029.21 322.886 1039.3 317.31C1049.73 311.386 1057.72 303.37 1063.29 293.263C1069.2 283.157 1072.15 271.656 1072.15 258.762C1072.15 245.867 1069.2 234.367 1063.29 224.26C1057.72 214.154 1049.73 206.313 1039.3 200.737C1029.21 194.812 1017.91 191.85 1005.4 191.85C992.532 191.85 980.885 194.812 970.455 200.737C960.372 206.313 952.549 214.154 946.986 224.26C941.423 234.367 938.642 245.867 938.642 258.762C938.642 271.656 941.423 283.157 946.986 293.263C952.897 303.37 960.894 311.386 970.976 317.31C981.059 322.886 992.532 325.674 1005.4 325.674Z" fill="white"/>
<path d="M1183.78 389.45V128.074H1252.1V156.825C1262.18 146.022 1274.35 137.658 1288.61 131.733C1302.86 125.809 1318.33 122.847 1335.02 122.847C1357.27 122.847 1377.09 127.726 1394.47 137.484C1411.86 147.242 1425.24 161.182 1434.63 179.304C1444.02 197.077 1448.71 217.639 1448.71 240.988V389.45H1373.09V253.012C1373.09 234.193 1368.22 219.381 1358.49 208.578C1348.75 197.774 1335.72 192.373 1319.38 192.373C1307.9 192.373 1297.47 194.986 1288.08 200.214C1278.7 205.441 1271.4 212.76 1266.18 222.169C1260.97 231.23 1258.36 241.511 1258.36 253.012V389.45H1183.78Z" fill="white"/>
<path d="M1676.18 397.291C1640.37 397.291 1607.86 389.101 1578.65 372.722C1549.45 355.994 1526.5 333.167 1509.81 304.241C1493.12 274.967 1484.78 242.382 1484.78 206.487C1484.78 170.591 1493.12 138.181 1509.81 109.255C1526.5 79.981 1549.45 57.1542 1578.65 40.7746C1607.86 24.0466 1640.37 15.6826 1676.18 15.6826C1712.34 15.6826 1745.02 24.0466 1774.22 40.7746C1803.43 57.1542 1826.37 79.981 1843.06 109.255C1859.75 138.181 1868.1 170.591 1868.1 206.487C1868.1 242.382 1859.75 274.967 1843.06 304.241C1826.37 333.167 1803.43 355.994 1774.22 372.722C1745.02 389.101 1712.34 397.291 1676.18 397.291ZM1676.18 314.696C1695.99 314.696 1713.73 309.992 1729.37 300.582C1745.37 291.172 1757.88 278.278 1766.92 261.898C1775.96 245.17 1780.48 226.7 1780.48 206.487C1780.48 186.274 1775.96 167.977 1766.92 151.598C1757.88 134.87 1745.37 121.801 1729.37 112.392C1713.73 102.982 1695.99 98.2773 1676.18 98.2773C1656.71 98.2773 1638.98 102.982 1622.98 112.392C1607.34 121.801 1594.99 134.87 1585.95 151.598C1577.26 167.977 1572.92 186.274 1572.92 206.487C1572.92 226.7 1577.26 245.17 1585.95 261.898C1594.99 278.278 1607.34 291.172 1622.98 300.582C1638.98 309.992 1656.71 314.696 1676.18 314.696Z" fill="white"/>
<path d="M2055.87 397.291C2024.58 397.291 1996.24 392.412 1970.86 382.654C1945.83 372.547 1925.49 357.388 1909.85 337.175C1894.55 316.962 1885.51 292.044 1882.73 262.421H1968.78C1971.21 275.664 1976.25 286.99 1983.9 296.4C1991.55 305.81 2001.46 313.128 2013.63 318.356C2026.15 323.235 2040.23 325.674 2055.87 325.674C2077.43 325.674 2094.46 322.712 2106.98 316.787C2119.5 310.514 2125.76 301.279 2125.76 289.082C2125.76 279.672 2122.8 272.353 2116.89 267.126C2110.98 261.898 2102.64 257.716 2091.86 254.58C2081.43 251.443 2064.56 247.436 2041.27 242.557H2040.75C2010.5 235.935 1985.12 228.965 1964.61 221.647C1944.44 213.98 1927.23 202.479 1912.98 187.145C1899.07 171.811 1892.11 151.598 1892.11 126.506C1892.11 101.414 1899.42 80.678 1914.02 64.2984C1928.62 47.5704 1947.57 35.3729 1970.86 27.7058C1994.51 19.6903 2020.06 15.6826 2047.53 15.6826C2076.04 15.6826 2102.46 20.3873 2126.8 29.7968C2151.48 38.8579 2171.82 53.1464 2187.82 72.6625C2203.81 92.1785 2213.37 116.922 2216.5 146.893H2126.8C2123.32 127.726 2114.28 113.263 2099.68 103.505C2085.08 93.3982 2066.82 88.345 2044.92 88.345C2033.79 88.345 2023.36 89.5647 2013.63 92.0043C2004.24 94.4438 1996.42 98.4515 1990.16 104.028C1983.9 109.604 1980.77 116.748 1980.77 125.46C1980.77 134.173 1983.9 141.317 1990.16 146.893C1996.42 152.121 2004.76 156.303 2015.19 159.439C2025.62 162.227 2040.57 165.712 2060.04 169.894C2061.09 170.243 2062.3 170.591 2063.69 170.94C2065.43 170.94 2066.82 171.114 2067.87 171.462C2068.56 171.811 2069.26 172.159 2069.95 172.508C2071 172.508 2071.87 172.508 2072.56 172.508C2102.46 179.129 2127.49 186.622 2147.66 194.986C2167.82 203.002 2184.17 214.502 2196.68 229.488C2209.55 244.473 2215.98 263.815 2215.98 287.513C2215.98 309.817 2209.72 329.333 2197.2 346.061C2184.69 362.441 2166.43 375.161 2142.44 384.222C2118.45 392.935 2089.6 397.291 2055.87 397.291Z" fill="white"/>
<path d="M64.8574 311.931V347.064C64.8574 365.016 50.3386 379.57 32.4287 379.57C14.5188 379.57 0 365.016 0 347.064V74.0957C0 49.7745 19.6698 30.0582 43.9337 30.0582C57.1706 30.0582 69.7018 36.0404 78.0441 46.3418L159.742 147.226C199.382 196.175 278.388 168.079 278.388 105.033V70.091C278.388 52.4151 292.683 38.0859 310.318 38.0859C327.952 38.0859 342.247 52.415 342.247 70.091V349.365C342.247 371.503 324.343 389.45 302.257 389.45C290.303 389.45 278.976 384.089 271.379 374.837L184.44 268.949C144.203 219.942 64.8574 248.462 64.8574 311.931Z" fill="white"/>
</svg>
